#!OML:ASF F:\VICON\USERDATA\INSTALL\Justin_Nancy\Justin_Nancy.ASF
:FULLY-SPECIFIED
:DEGREES
32
root 12.3597 17.496 -21.5845 -1.20021 -0.390443 3.18663
lowerback 6.7594 -0.750714 -4.80107
upperback 0.0842308 -1.32783 1.26749
thorax -3.56798 -0.566995 4.14582
lowerneck -14.4746 -3.22959 -9.05471
upperneck 22.3423 -3.50518 5.01717
head 9.71959 -1.84223 2.82389
rclavicle -9.24349e-015 -1.43125e-014
rhumerus -33.8482 -18.8151 -76.9516
rradius 25.4431
rwrist 12.8536
rhand -11.3561 10.6429
rfingers 7.12502
rthumb 14.6774 -18.8175
lclavicle -9.24349e-015 -1.43125e-014
lhumerus -27.8543 13.5997 83.4329
lradius 22.8671
lwrist -11.6301
lhand -13.4914 30.0966
lfingers 7.12502
lthumb 12.6195 59.6954
rfemur -25.3729 -2.34364 17.8204
rtibia 66.9316
rfoot -4.21287 -4.95546
rtoes 6.12927
lfemur -8.44562 -0.510407 -28.9918
ltibia 26.8413
lfoot -13.3269 -3.24661
ltoes 9.37033
33
root 12.3645 17.4835 -21.4434 -1.23394 -0.00942821 3.15319
lowerback 6.9854 -0.906224 -4.7956
upperback 0.0299985 -1.54389 1.33518
thorax -3.72671 -0.668139 4.24075
lowerneck -14.3085 -3.30538 -8.99259
upperneck 22.1756 -3.5874 4.80769
head 9.63179 -1.89849 2.72782
rclavicle -4.57205e-015 -8.74653e-015
rhumerus -34.3633 -18.7294 -76.749
rradius 25.6195
rwrist 12.3778
rhand -11.024 10.9973
rfingers 7.12502
rthumb 14.9974 -18.4396
lclavicle -4.57205e-015 -8.74653e-015
lhumerus -27.6712 13.0063 83.6544
lradius 23.4498
lwrist -11.3176
lhand -14.5336 29.1728
lfingers 7.12502
lthumb 11.6146 58.8309
rfemur -25.9824 -2.33097 17.814
rtibia 65.7106
rfoot -5.21839 -4.8172
rtoes 4.30131
lfemur -8.02092 -0.42679 -28.9791
ltibia 27.1074
lfoot -13.824 -3.70017
ltoes 9.85997
34
root 12.3662 17.4595 -21.3079 -1.17685 0.445225 3.13289
lowerback 7.15236 -1.07625 -4.80612
upperback 0.0199344 -1.77747 1.38614
thorax -3.80388 -0.781042 4.32765
lowerneck -14.3937 -3.40359 -8.95727
upperneck 22.0851 -3.69331 4.68415
head 9.62178 -1.95608 2.66276
rclavicle -3.3048e-015 3.18055e-015
rhumerus -34.6167 -18.6644 -76.6926
rradius 25.6588
rwrist 12.0904
rhand -11.4611 11.5549
rfingers 7.12502
rthumb 14.5762 -17.9129
lclavicle -3.3048e-015 3.18055e-015
lhumerus -27.2668 12.6125 83.8251
lradius 23.9895
lwrist -11.8398
lhand -17.6354 25.4473
lfingers 7.12502
lthumb 8.62217 55.2512
rfemur -26.6911 -2.31965 17.8247
rtibia 64.347
rfoot -6.00899 -4.99896
rtoes 2.81594
lfemur -7.70304 -0.388797 -28.9547
ltibia 27.3216
lfoot -14.1678 -4.02061
ltoes 9.88261
35
root 12.3665 17.4432 -21.178 -1.10638 0.88475 3.32164
lowerback 7.34231 -1.25413 -5.02978
upperback 0.137968 -2.03916 1.41618
thorax -3.75029 -0.910868 4.51475
lowerneck -15.2458 -3.39806 -9.06864
upperneck 22.4387 -3.58581 4.69477
head 9.90259 -1.90809 2.69642
rclavicle 6.53505e-015 -3.18055e-015
rhumerus -34.446 -18.5049 -76.7407
rradius 25.612
rwrist 11.8672
rhand -12.1431 11.5999
rfingers 7.12502
rthumb 13.9191 -17.9142
lclavicle 6.53505e-015 -3.18055e-015
lhumerus -26.6153 12.1359 84.1429
lradius 24.4952
lwrist -11.4933
lhand -18.4191 22.8975
lfingers 7.12502
lthumb 7.86583 52.7311
rfemur -27.4063 -2.28073 17.6078
rtibia 62.8075
rfoot -6.47125 -5.26002
rtoes 2.45774
lfemur -7.38621 -0.256012 -29.1409
ltibia 27.4677
lfoot -14.5226 -4.35827
ltoes 9.61778
36
root 12.3635 17.4388 -21.0505 -1.04108 1.15773 3.35949
lowerback 7.45946 -1.34414 -5.14387
upperback 0.260366 -2.17026 1.46884
thorax -3.66726 -0.978969 4.64854
lowerneck -15.8482 -3.37438 -9.34205
upperneck 22.6426 -3.49428 4.97092
head 10.0929 -1.85269 2.8514
rclavicle 1.43373e-014 -9.54166e-015
rhumerus -34.3338 -18.5797 -76.6679
rradius 25.5843
rwrist 11.8587
rhand -12.4874 11.3033
rfingers 7.12502
rthumb 13.5873 -18.2333
lclavicle 1.43373e-014 -9.54166e-015
lhumerus -25.9797 11.398 84.5031
lradius 24.9882
lwrist -10.761
lhand -12.0943 30.1456
lfingers 7.12502
lthumb 13.9661 59.6565
rfemur -27.992 -2.04505 17.566
rtibia 61.0562
rfoot -6.94445 -5.38222
rtoes 2.95799
lfemur -6.93953 -0.197722 -29.1783
ltibia 27.489
lfoot -14.9507 -4.3875
ltoes 9.15477
